<svg id="Laag_1" data-name="Laag 1" xmlns="http://www.w3.org/2000/svg" viewBox="0 0 174.05 50"><defs><style>.cls-1{fill:#3758f9;}.cls-2{fill:#fff;}</style></defs><rect class="cls-1" width="50" height="50" rx="14.39"/><path class="cls-2" d="M34.94,12a2.92,2.92,0,0,0-1,.72l-.39.37,2.61,2.46L38.77,18l.44-.42c.6-.56.76-.84.76-1.32a1.46,1.46,0,0,0-.11-.58A41.32,41.32,0,0,0,36,12,1.93,1.93,0,0,0,34.94,12Z" transform="translate(-0.69 -0.34)"/><path class="cls-2" d="M22.6,23.36c-9.44,8.89-10.07,9.5-10.15,9.74-.15.45-1,4.15-1,4.32a1.52,1.52,0,0,0,.88,1.26c.43.18.83.12,3.06-.37,1.13-.25,2.15-.49,2.26-.54s3.3-3,10.24-9.52c5.52-5.19,10-9.46,10-9.5a26.45,26.45,0,0,0-2-1.91S31.36,21,26,26.09C15.53,35.89,16,35.45,15.58,35.4a.86.86,0,0,1-.56-.52c0-.42-.52,0,9.91-9.78l9.84-9.26-1-1c-.57-.54-1-1-1.06-1S28.12,18.16,22.6,23.36Z" transform="translate(-0.69 -0.34)"/><path class="cls-2" d="M20.45,37.65v.68H39.66V37H20.45Z" transform="translate(-0.69 -0.34)"/><path d="M60.1,28.44v7.92H54.89v-24h8.32q4.49,0,6.74,1.94T72.2,20.2a7.56,7.56,0,0,1-2.59,6,10.06,10.06,0,0,1-6.89,2.27Zm0-12v8h2.17a4.76,4.76,0,0,0,3.32-1,3.88,3.88,0,0,0,1.11-3,3.79,3.79,0,0,0-1.1-3,4.78,4.78,0,0,0-3.31-1Z" transform="translate(-0.69 -0.34)"/><path d="M86.36,23.09c-.22-.05-.45-.1-.68-.13s-.49,0-.77,0a3.81,3.81,0,0,0-3.15,1.33,5.77,5.77,0,0,0-1.06,3.69v8.42H75.59V18.83H80.7V22.1h.07a5.53,5.53,0,0,1,1.78-2.68,4.59,4.59,0,0,1,2.85-.89,6.49,6.49,0,0,1,.77,0c.25,0,.51.08.78.13Z" transform="translate(-0.69 -0.34)"/><path d="M97.78,36.79A9.24,9.24,0,0,1,91,34.32a8.91,8.91,0,0,1-2.47-6.65,9,9,0,0,1,2.58-6.82,9.64,9.64,0,0,1,7-2.45,9.17,9.17,0,0,1,6.77,2.44,8.8,8.8,0,0,1,2.46,6.53,9.28,9.28,0,0,1-2.55,6.87A9.37,9.37,0,0,1,97.78,36.79ZM98,32.85A3.57,3.57,0,0,0,101,31.49a6.62,6.62,0,0,0,1-4,6.13,6.13,0,0,0-1-3.84,3.7,3.7,0,0,0-3.08-1.29,3.79,3.79,0,0,0-3.13,1.39,6,6,0,0,0-1.12,3.87,6.1,6.1,0,0,0,1.08,3.93A3.88,3.88,0,0,0,98,32.85Z" transform="translate(-0.69 -0.34)"/><path d="M121.15,14.8a4.48,4.48,0,0,0-.87-.32,3.75,3.75,0,0,0-.87-.09,2.22,2.22,0,0,0-1.73.66,2.82,2.82,0,0,0-.59,1.91v1.87h4v3.78h-4V36.36H112V22.61h-3V18.83h3V16.66a5.73,5.73,0,0,1,1.91-4.5,7.1,7.1,0,0,1,4.94-1.7,10.85,10.85,0,0,1,1.87.13,14.92,14.92,0,0,1,1.61.39Z" transform="translate(-0.69 -0.34)"/><path d="M126.7,16.47a3,3,0,0,1-2.18-.81,2.65,2.65,0,0,1-.85-2,2.64,2.64,0,0,1,.85-2,3.44,3.44,0,0,1,4.36,0,2.67,2.67,0,0,1,.84,2,2.68,2.68,0,0,1-.84,2A3.06,3.06,0,0,1,126.7,16.47Zm2.5,19.89h-5.09V18.83h5.09Z" transform="translate(-0.69 -0.34)"/><path d="M134.28,36.36V11h5.12V36.36Z" transform="translate(-0.69 -0.34)"/><path d="M159.83,29H148.28a4.14,4.14,0,0,0,1.32,3,4.88,4.88,0,0,0,3.28,1,7,7,0,0,0,2.09-.45,9,9,0,0,0,2.6-1.39l2.22,3a12.83,12.83,0,0,1-3.64,2,12.62,12.62,0,0,1-4.09.63,8.71,8.71,0,0,1-6.52-2.36,9,9,0,0,1-2.32-6.58A9.57,9.57,0,0,1,145.68,21a8.13,8.13,0,0,1,6.21-2.62,7.7,7.7,0,0,1,5.79,2.2A8.75,8.75,0,0,1,159.83,27Zm-4.75-3.21a4.46,4.46,0,0,0-.82-3,3,3,0,0,0-2.4-.92A3.13,3.13,0,0,0,149.48,23a4.91,4.91,0,0,0-1.21,2.86Z" transform="translate(-0.69 -0.34)"/><path d="M174.15,23.09c-.23-.05-.45-.1-.69-.13s-.49,0-.77,0a3.81,3.81,0,0,0-3.15,1.33,5.83,5.83,0,0,0-1.06,3.69v8.42h-5.11V18.83h5.11V22.1h.07a5.55,5.55,0,0,1,1.79-2.68,4.56,4.56,0,0,1,2.84-.89,6.53,6.53,0,0,1,.78,0c.25,0,.5.08.77.13Z" transform="translate(-0.69 -0.34)"/></svg>