<svg id="Laag_1" data-name="Laag 1" xmlns="http://www.w3.org/2000/svg" viewBox="0 0 1000 1000">
	<defs>
		<style>
			.cls-1{fill:#3758f9;}.cls-2{fill:#fff;}
		</style>
	</defs>
	<rect class="cls-1" width="1000" height="1000" rx="287.7" />
	<path class="cls-2" d="M685.11,232.33c-5.36,1.9-11.73,6.42-20.1,14.4l-7.82,7.47,52.27,49.19,52.15,49.08,8.82-8.3c12-11.25,15.19-16.82,15.19-26.38a27.06,27.06,0,0,0-2.12-11.56c-2.9-5.79-71.14-69.9-77.17-72.53C701.08,231.39,689.8,230.65,685.11,232.33Z" />
	<path class="cls-2" d="M438.19,460.42C249.56,638.16,236.83,650.25,235.26,655.19c-3,9-20.88,82.93-20.88,86.4,0,9.56,8,21.23,17.53,25.12,8.49,3.57,16.64,2.52,61.09-7.36,22.67-5.05,43-9.88,45.23-10.72,2.79-1,66.12-60,204.82-190.46,110.34-103.85,200.69-189.3,200.69-189.93,0-1.37-39.31-38.37-40.76-38.37-.67,0-89.57,83.25-197.79,185.1C296.91,711,306.74,702.17,297.8,701.12c-4-.42-10.61-6.62-11.05-10.41-1.12-8.41-10.5.84,198.12-195.5L681.76,309.9,661.1,290.46C649.71,279.74,640.21,271,639.88,271S548.75,356.26,438.19,460.42Z" />
	<path class="cls-2" d="M395.3,746.1v13.67H779.48V732.44H395.3Z" />
</svg>
